# xmcd CD database file
#
# Track frame offsets:
#	150
#	37960
#	67617
#	100402
#	132687
#	161650
#	199817
#
# Disc length: 3127 seconds
#
# Revision: 0
# Processed by: cddbd v1.5.2PL0 Copyright (c) Steve Scherf et al.
# Submitted via: CDex 1.51
#
DISCID=5c0c3507
DTITLE=Calma - Música y cuentos para la relajación
DYEAR=1900
DGENRE=New Age
TTITLE0=Meditación marina
TTITLE1=Un árbol
TTITLE2=El fuego
TTITLE3=El viaje
TTITLE4=Regeneración
TTITLE5=Tierra
TTITLE6=Una hoja en el viento
EXTD=
EXTT0=
EXTT1=
EXTT2=
EXTT3=
EXTT4=
EXTT5=
EXTT6=
PLAYORDER=
